<?xml version="1.0" standalone="no"?>
<!DOCTYPE svg PUBLIC "-//W3C//DTD SVG 20010904//EN"
 "http://www.w3.org/TR/2001/REC-SVG-20010904/DTD/svg10.dtd">
<svg version="1.0" xmlns="http://www.w3.org/2000/svg"
 width="261.000000pt" height="261.000000pt" viewBox="0 0 261.000000 261.000000"
 preserveAspectRatio="xMidYMid meet">
<metadata>
Created by potrace 1.14, written by Peter Selinger 2001-2017
</metadata>
<g transform="translate(0.000000,261.000000) scale(0.100000,-0.100000)"
fill="#000000" stroke="none">
<path d="M1778 2585 c-2 -3 -328 -50 -724 -105 -395 -55 -739 -108 -764 -117
-56 -21 -135 -94 -165 -153 -43 -85 -45 -125 -45 -945 0 -869 -1 -850 66 -925
25 -27 108 -78 292 -177 296 -161 310 -167 354 -160 18 3 353 50 743 106 391
55 733 107 761 116 61 18 133 78 171 142 52 90 53 95 53 955 0 777 -1 799 -20
852 -11 29 -35 68 -54 86 -32 32 -223 141 -464 266 -88 45 -135 64 -161 64
-21 0 -40 -2 -43 -5z m-410 -202 c-16 -2 -40 -2 -55 0 -16 2 -3 4 27 4 30 0
43 -2 28 -4z m-110 -13 c-14 -4 -31 -11 -37 -15 -6 -3 -11 -2 -11 4 0 10 23
19 55 19 14 0 12 -2 -7 -8z m-145 -35 c-3 -9 -8 -14 -10 -11 -3 3 -2 9 2 15 9
16 15 13 8 -4z m-16 -47 c-3 -8 -6 -5 -6 6 -1 11 2 17 5 13 3 -3 4 -12 1 -19z
m73 2 c0 -5 -5 -10 -11 -10 -5 0 -7 5 -4 10 3 6 8 10 11 10 2 0 4 -4 4 -10z
m-421 -692 c55 -28 81 -62 88 -117 l6 -42 -59 3 c-53 3 -59 5 -62 26 -5 36
-44 54 -117 55 -72 1 -105 -18 -105 -60 0 -47 30 -62 191 -93 67 -13 129 -51
155 -94 26 -44 25 -136 -2 -173 -49 -67 -147 -100 -261 -90 -116 11 -191 69
-208 160 l-7 37 41 1 c22 1 49 2 58 3 11 1 20 -10 27 -32 14 -50 46 -66 132
-67 63 0 76 3 98 24 34 32 34 74 1 105 -17 16 -50 27 -116 39 -167 30 -224 75
-224 177 0 66 20 102 73 133 72 42 212 44 291 5z m610 -8 c62 -35 83 -78 79
-160 -6 -127 -58 -162 -248 -170 l-125 -5 -2 -115 -1 -115 -56 -3 -56 -3 0
301 0 302 183 -4 c173 -3 184 -4 226 -28z m978 -662 c-3 -7 -5 -2 -5 12 0 14
2 19 5 13 2 -7 2 -19 0 -25z m-1758 -473 c12 -3 21 -11 21 -16 0 -15 -76 32
-128 79 -47 42 -47 42 20 -7 37 -27 76 -52 87 -56z m76 -35 c-3 -5 -11 -10
-16 -10 -6 0 -7 5 -4 10 3 6 11 10 16 10 6 0 7 -4 4 -10z m35 -4 c0 -2 -7 -7
-16 -10 -8 -3 -12 -2 -9 4 6 10 25 14 25 6z m167 -52 c-3 -3 -12 -4 -19 -1 -8
3 -5 6 6 6 11 1 17 -2 13 -5z"/>
<path d="M1065 1497 c-4 -13 -5 -48 -3 -78 l3 -54 95 -3 c123 -4 138 1 156 45
13 29 13 41 3 65 -16 40 -43 48 -154 48 -90 0 -95 -1 -100 -23z"/>
</g>
</svg>
